<?xml version="1.0" encoding="UTF-8"?>
<svg width="93px" height="117px" viewBox="0 0 93 117" version="1.1" xmlns="http://www.w3.org/2000/svg" xmlns:xlink="http://www.w3.org/1999/xlink">
    <!-- Generator: Sketch 52.2 (67145) - http://www.bohemiancoding.com/sketch -->
    <title>Group 25</title>
    <desc>Created with Sketch.</desc>
    <g id="Landing-Page" stroke="none" stroke-width="1" fill="none" fill-rule="evenodd">
        <g transform="translate(-594.000000, -3059.000000)" fill-rule="nonzero" id="Group-32">
            <g transform="translate(200.000000, 2927.168028)">
                <g id="Group-16" transform="translate(393.490493, 130.883318)">
                    <g id="Group-25" transform="translate(0.761023, 0.979582)">
                        <g id="Group-7" transform="translate(45.714084, 74.000000) scale(-1, 1) translate(-45.714084, -74.000000) translate(0.214084, 30.000000)">
                            <g id="Group-31" transform="translate(36.465467, 43.582433) scale(-1, 1) translate(-36.465467, -43.582433) translate(0.965467, 0.082433)">
                                <path d="M43.3347409,76.5790294 C45.0820405,76.5790294 46.4983571,77.995346 46.4983571,79.7424973 L46.4983571,82.9061134 C46.4983571,84.6532647 45.0820405,86.0695813 43.3348892,86.0695813 L43.3347409,86.0695813 C41.5875896,86.0695813 40.171273,84.6532647 40.171273,82.9061134 L40.171273,79.7424973 C40.171273,77.995346 41.5875896,76.5790294 43.3347409,76.5790294 Z" id="Shape" fill="#5843DE"></path>
                                <path d="M60.7341109,76.5790294 C62.4814105,76.5790294 63.8977271,77.995346 63.8977271,79.7424973 L63.8977271,82.9061134 C63.8977271,84.6532647 62.4814105,86.0695813 60.7342592,86.0695813 L60.7341109,86.0695813 C58.9869596,86.0695813 57.570643,84.6532647 57.570643,82.9061134 L57.570643,79.7424973 C57.570643,77.995346 58.9869596,76.5790294 60.7341109,76.5790294 Z" id="Shape-Copy" fill="#473D89"></path>
                                <path d="M32.262455,76.5790294 C34.0097546,76.5790294 35.4260712,77.995346 35.4260712,79.7424973 L35.4260712,82.9061134 C35.4260712,84.6532647 34.0097546,86.0695813 32.2626033,86.0695813 L32.262455,86.0695813 C30.5153037,86.0695813 29.0989871,84.6532647 29.0989871,82.9061134 L29.0989871,79.7424973 C29.0989871,77.995346 30.5153037,76.5790294 32.262455,76.5790294 Z" id="Shape-Copy-2" fill="#473D89"></path>
                                <g id="029-hotel" transform="translate(0.147785, 13.046156)">
                                    <path d="M9.49114513,50.616376 L66.434457,50.616376 L66.434457,63.2703959 C66.434457,66.7646985 63.6016755,69.59748 60.1073729,69.59748 L9.49114513,69.59748 C5.99684253,69.59748 3.16406105,66.7646985 3.16406105,63.2703959 L3.16406105,56.9433118 C3.16406105,53.4490092 5.99684253,50.616376 9.49114513,50.616376 C9.49114513,50.616376 9.49114513,50.616376 9.49114513,50.616376 Z" id="Shape" fill="#1F36CC"></path>
                                    <path d="M50.6162277,50.6168209 L63.2703959,50.6168209 C65.0175472,50.6168209 66.4338638,52.0331375 66.4338638,53.7802888 L66.4338638,53.7804371 C66.4338638,55.5275884 65.0175472,56.943905 63.2703959,56.943905 L50.6162277,56.943905 C48.8690764,56.943905 47.4527599,55.5275884 47.4527599,53.7804371 L47.4527599,53.7802888 C47.4527599,52.0331375 48.8692247,50.6168209 50.6162277,50.6168209 Z" id="Shape" fill="#413E51" opacity="0.18"></path>
                                    <path d="M47.453353,63.2703959 L47.453353,50.616376 L3.31650304,50.616376 C3.23242269,50.616376 3.16420934,50.6844411 3.16420934,50.7685215 C3.16420934,50.7685215 3.16420934,50.7686697 3.16420934,50.7686697 L3.16420934,63.2703959 C3.16420934,66.7646985 5.99699082,69.5973317 9.49129342,69.59748 L53.7805854,69.59748 C50.2859862,69.5973317 47.453353,66.7646985 47.453353,63.2703959 Z" id="Shape" fill="#4B5ED6"></path>
                                    <path d="M6.32767724,50.6168209 L44.2904783,50.6168209 C46.0376296,50.6168209 47.4539462,52.0331375 47.4539462,53.7802888 L47.4539462,53.7804371 C47.4539462,55.5275884 46.0376296,56.943905 44.2904783,56.943905 L6.32767724,56.943905 C4.58052593,56.943905 3.16420934,55.5275884 3.16420934,53.7804371 L3.16420934,53.7802888 C3.16420934,52.0331375 4.58052593,50.6168209 6.32767724,50.6168209 Z" id="Shape" fill="#413E51" opacity="0.18"></path>
                                    <path d="M60.1073729,0 L9.49114513,0 C5.99684253,0 3.16406105,2.83278147 3.16406105,6.32708408 C3.16406105,6.32708408 3.16406105,6.32708408 3.16406105,6.32708408 L3.16406105,44.289292 C3.16406105,47.7835946 5.99669424,50.616376 9.49114513,50.616376 C9.49114513,50.616376 9.49114513,50.616376 9.49114513,50.616376 L66.434457,50.616376 L66.434457,6.32708408 C66.434457,2.83278147 63.6016755,0 60.1073729,0 Z" id="Shape" fill="#1F36CC"></path>
                                    <path d="M26.890441,0 L36.3803998,0 C37.2539754,0 37.9622079,0.708232441 37.9622079,1.58180809 C37.9622079,2.45538374 37.2539754,3.16361618 36.3803998,3.16361618 L26.890441,3.16361618 C26.0168653,3.16361618 25.3086329,2.45538374 25.3086329,1.58180809 C25.3087812,0.708232441 26.0168653,0 26.890441,0 Z" id="Shape" fill="#000000" opacity="0.18"></path>
                                    <g id="Group" transform="translate(3.114087, 0.000000)" fill="#4B5ED6">
                                        <path d="M19.0310776,-2.42070577e-14 L6.37705777,-2.42070577e-14 C2.88275516,-2.42070577e-14 0.0499736877,2.83263318 0.0499736877,6.32693579 C0.0499736877,6.32693579 0.0499736877,6.32708408 0.0499736877,6.32708408 L0.0499736877,53.7798439 L19.0310776,53.7798439 L19.0310776,6.32708408 C19.0310776,2.83278147 21.8637108,0.000148289875 25.3581617,-2.84217094e-14 C25.3581617,-2.84217094e-14 25.3581617,-2.84217094e-14 25.3581617,-2.84217094e-14 L19.0310776,-2.42070577e-14 Z" id="Shape"></path>
                                        <path d="M44.3392656,-2.42070577e-14 L31.6852458,-2.42070577e-14 C28.1909432,-2.42070577e-14 25.35831,2.83263318 25.3581617,6.32693579 C25.3581617,6.32693579 25.3581617,6.32708408 25.3581617,6.32708408 L25.3581617,53.7798439 L44.3392656,53.7798439 L44.3392656,6.32708408 C44.3392656,2.83278147 47.1718988,0.000148289875 50.6663497,-2.84217094e-14 C50.6663497,-2.84217094e-14 50.6663497,-2.84217094e-14 50.6663497,-2.84217094e-14 L44.3392656,-2.42070577e-14 Z" id="Shape"></path>
                                    </g>
                                    <path d="M3.16406105,47.452315 L66.4338638,47.452315 C68.1810151,47.452315 69.5973317,48.8686316 69.5973317,50.6157829 L69.5973317,50.6159312 C69.5973317,52.3630825 68.1810151,53.7793991 66.4338638,53.7793991 L3.16406105,53.7793991 C1.41690975,53.7793991 0.000593159498,52.3630825 0.000593159498,50.6159312 L0.000593159498,50.6157829 C0.000593159498,48.8686316 1.41690975,47.452315 3.16406105,47.452315 Z" id="Shape" fill="#5563ED"></path>
                                    <path d="M3.16406105,47.452315 L47.4527599,47.452315 C49.1999112,47.452315 50.6162277,48.8686316 50.6162277,50.6157829 L50.6162277,50.6159312 C50.6162277,52.3630825 49.1999112,53.7793991 47.4527599,53.7793991 L3.16406105,53.7793991 C1.41690975,53.7793991 0.000593159498,52.3630825 0.000593159498,50.6159312 L0.000593159498,50.6157829 C0.000593159498,48.8686316 1.41690975,47.452315 3.16406105,47.452315 Z" id="Shape" fill="#7683FF"></path>
                                    <path d="M4.74601743,47.452315 L45.8721381,47.452315 C46.7457137,47.452315 47.4539462,48.1605474 47.4539462,49.0341231 C47.4539462,49.9076987 46.7457137,50.6159312 45.8721381,50.6159312 L4.74601743,50.6159312 C3.87244178,50.6159312 3.16420934,49.9076987 3.16420934,49.0341231 C3.16420934,48.1605474 3.87229349,47.452315 4.74601743,47.452315 Z" id="Shape" fill="#FFFFFF" opacity="0.18"></path>
                                    <path d="M52.1992222,47.452315 L64.8536869,47.452315 C65.7272625,47.452315 66.435495,48.1605474 66.435495,49.0341231 C66.435495,49.9076987 65.7272625,50.6159312 64.8536869,50.6159312 L52.1992222,50.6159312 C51.3256465,50.6159312 50.6174141,49.9076987 50.6174141,49.0341231 C50.6174141,48.1605474 51.3254982,47.452315 52.1992222,47.452315 Z" id="Shape" fill="#FFFFFF" opacity="0.18"></path>
                                    <g id="Group" transform="translate(3.114087, 44.190383)" opacity="0.18">
                                        <path d="M1.63193007,0.0989093463 L17.4494178,0.0989093463 C18.3229935,0.0989093463 19.0312259,0.807141787 19.0312259,1.68071744 C19.0312259,2.55429309 18.3229935,3.26252553 17.4494178,3.26252553 L1.63193007,3.26252553 C0.758354418,3.26252553 0.0501219776,2.55429309 0.0501219776,1.68071744 C0.0501219776,0.807141787 0.758206129,0.0989093463 1.63193007,0.0989093463 Z" id="Shape" fill="#000000"></path>
                                        <path d="M26.9395249,0.0989093463 L42.7570127,0.0989093463 C43.6305883,0.0989093463 44.3388208,0.807141787 44.3388208,1.68071744 C44.3388208,2.55429309 43.6305883,3.26252553 42.7570127,3.26252553 L26.9395249,3.26252553 C26.0659493,3.26252553 25.3577168,2.55429309 25.3577168,1.68071744 C25.3577168,0.807141787 26.065801,0.0989093463 26.9395249,0.0989093463 Z" id="Shape" fill="#413E51"></path>
                                    </g>
                                    <g id="Group" transform="translate(22.095191, 44.190383)" opacity="0.18">
                                        <path d="M26.9393766,0.0989093463 L42.7568644,0.0989093463 C43.63044,0.0989093463 44.3386725,0.807141787 44.3386725,1.68071744 C44.3386725,2.55429309 43.63044,3.26252553 42.7568644,3.26252553 L26.9393766,3.26252553 C26.065801,3.26252553 25.3575685,2.55429309 25.3575685,1.68071744 C25.3575685,0.807141787 26.065801,0.0989093463 26.9393766,0.0989093463 Z" id="Shape" fill="#413E51"></path>
                                        <path d="M1.63237494,0.0989093463 L4.79584283,0.0989093463 C5.66941848,0.0989093463 6.37765092,0.807141787 6.37765092,1.68071744 C6.37765092,2.55429309 5.66941848,3.26252553 4.79584283,3.26252553 L1.63237494,3.26252553 C0.758799288,3.26252553 0.0505668472,2.55429309 0.0505668472,1.68071744 C0.0505668472,0.807141787 0.758650998,0.0989093463 1.63237494,0.0989093463 Z" id="Shape" fill="#000000"></path>
                                    </g>
                                    <g id="Group" transform="translate(6.228175, 0.000000)" fill="#FFFFFF" opacity="0.18">
                                        <path d="M1.6813106,0 L14.3357753,0 C15.209351,0 15.9175834,0.708232441 15.9175834,1.58180809 C15.9175834,2.45538374 15.209351,3.16361618 14.3357753,3.16361618 L1.6813106,3.16361618 C0.807734947,3.16361618 0.0995025058,2.45538374 0.0995025058,1.58180809 C0.0995025058,0.708232441 0.807586657,0 1.6813106,0 Z" id="Shape"></path>
                                        <path d="M26.9899435,0 L39.6444082,0 C40.5179839,0 41.2262163,0.708232441 41.2262163,1.58180809 C41.2262163,2.45538374 40.5179839,3.16361618 39.6444082,3.16361618 L26.9899435,3.16361618 C26.1163678,3.16361618 25.4081354,2.45538374 25.4081354,1.58180809 C25.4081354,0.708232441 26.1162195,0 26.9899435,0 Z" id="Shape"></path>
                                    </g>
                                    <path d="M52.1992222,0 L61.689181,0 C62.5627566,0 63.2709891,0.708232441 63.2709891,1.58180809 C63.2709891,2.45538374 62.5627566,3.16361618 61.689181,3.16361618 L52.1992222,3.16361618 C51.3256465,3.16361618 50.6174141,2.45538374 50.6174141,1.58180809 C50.6174141,0.708232441 51.3254982,0 52.1992222,0 Z" id="Shape" fill="#000000" opacity="0.18"></path>
                                    <path d="M4.74586915,56.942867 C5.6194448,56.942867 6.32767724,57.6510994 6.32767724,58.524675 L6.32767724,64.8516108 C6.32767724,65.7251865 5.6194448,66.4334189 4.74586915,66.4334189 C3.87229349,66.4334189 3.16406105,65.7251865 3.16406105,64.8516108 L3.16406105,58.524675 C3.16420934,57.6510994 3.87229349,56.942867 4.74586915,56.942867 Z" id="Shape" fill="#FFFFFF" opacity="0.18"></path>
                                </g>
                                <g id="Group-28" transform="translate(16.212771, 0.155650)">
                                    <path d="M6.44860335,12.9994138 L6.44860335,4.25540635 C6.44860335,2.64568924 5.14369687,1.34078275 3.53397975,1.34078275 C1.92426264,1.34078275 0.619356156,2.64568924 0.619356156,4.25540635 C0.619356156,4.25540635 0.619356156,4.25540635 0.619356156,4.25540635 L0.619356156,12.9994138 L6.44860335,12.9994138 Z" id="Shape" fill="#413E51"></path>
                                    <circle id="Oval" fill="#473D89" cx="28.5813459" cy="3.62300917" r="3.5715878"></circle>
                                    <path d="M3.57922685,0.0514213764 L28.5808437,0.0514213764 C30.5533955,0.0514213764 32.1524315,1.65045738 32.1524315,3.62300917 L32.1524315,3.62317659 C32.1524315,5.59572839 30.5533955,7.19476439 28.5808437,7.19476439 L3.57922685,7.19476439 C1.60667506,7.19476439 0.00763905487,5.59572839 0.00763905487,3.62317659 L0.00763905487,3.62300917 C0.00763905487,1.65045738 1.60667506,0.0514213764 3.57922685,0.0514213764 Z" id="Shape" fill="#A5AEEA"></path>
                                    <path d="M31.6420715,12.9994138 L31.6420715,4.25540635 C31.6420715,2.64568924 30.337165,1.34078275 28.7274479,1.34078275 C27.1177307,1.34078275 25.8128243,2.64568924 25.8128243,4.25540635 C25.8128243,4.25540635 25.8128243,4.25540635 25.8128243,4.25540635 L25.8128243,12.9994138 L31.6420715,12.9994138 Z" id="Shape" fill="#4B5ED6"></path>
                                </g>
                            </g>
                            <g id="023-luggage" transform="translate(65.301360, 63.698734) scale(-1, 1) translate(-65.301360, -63.698734) translate(39.801360, 40.198734)">
                                <path d="M18.4904518,9.28135807 L18.4904518,2.34745217 C18.4904518,1.07096343 17.4556747,0.0361863214 16.179186,0.0361863214 C14.9026972,0.0361863214 13.8679201,1.07096343 13.8679201,2.34745217 C13.8679201,2.34745217 13.8679201,2.34745217 13.8679201,2.34745217 L13.8679201,9.28135807 L18.4904518,9.28135807 Z" id="Shape" fill="#28139A"></path>
                                <path d="M16.1787526,0.0361863214 L32.3579386,0.0361863214 C33.6344273,0.0361863214 34.6692045,1.07096343 34.6692045,2.34745217 L34.6692045,2.34756052 C34.6692045,3.62404925 33.6344273,4.65882637 32.3579386,4.65882637 L16.1787526,4.65882637 C14.9022639,4.65882637 13.8674868,3.62404925 13.8674868,2.34756052 L13.8674868,2.34745217 C13.8674868,1.07096343 14.9022639,0.0361863214 16.1787526,0.0361863214 Z" id="Shape" fill="#BB2900"></path>
                                <path d="M34.6695295,9.28135807 L34.6695295,2.34745217 C34.6695295,1.07096343 33.6347524,0.0361863214 32.3582636,0.0361863214 C31.0817749,0.0361863214 30.0469978,1.07096343 30.0469978,2.34745217 C30.0469978,2.34745217 30.0469978,2.34745217 30.0469978,2.34745217 L30.0469978,9.28135807 L34.6695295,9.28135807 Z" id="Shape" fill="#3A27B4"></path>
                                <path d="M41.6034354,39.3279225 C42.8800325,39.3279225 43.9148096,40.3626996 43.9148096,41.6391883 L43.9148096,43.9505625 C43.9148096,45.2270513 42.8800325,46.2618284 41.6035437,46.2618284 L41.6034354,46.2618284 C40.3269466,46.2618284 39.2921695,45.2270513 39.2921695,43.9505625 L39.2921695,41.6391883 C39.2921695,40.3626996 40.3269466,39.3279225 41.6034354,39.3279225 Z" id="Shape" fill="#28139A"></path>
                                <path d="M30.0465644,39.3279225 C31.3231615,39.3279225 32.3579386,40.3626996 32.3579386,41.6391883 L32.3579386,43.9505625 C32.3579386,45.2270513 31.3231615,46.2618284 30.0466728,46.2618284 L30.0465644,46.2618284 C28.7700757,46.2618284 27.7352986,45.2270513 27.7352986,43.9505625 L27.7352986,41.6391883 C27.7352986,40.3626996 28.7700757,39.3279225 30.0465644,39.3279225 Z" id="Shape" fill="#3A27B4"></path>
                                <path d="M20.8017177,39.3279225 C22.0783148,39.3279225 23.1130919,40.3626996 23.1130919,41.6391883 L23.1130919,43.9505625 C23.1130919,45.2270513 22.0783148,46.2618284 20.801826,46.2618284 L20.8017177,46.2618284 C19.525229,46.2618284 18.4904518,45.2270513 18.4904518,43.9505625 L18.4904518,41.6391883 C18.4904518,40.3626996 19.525229,39.3279225 20.8017177,39.3279225 Z" id="Shape" fill="#28139A"></path>
                                <path d="M9.24484672,39.3279225 C10.5214438,39.3279225 11.5562209,40.3626996 11.5562209,41.6391883 L11.5562209,43.9505625 C11.5562209,45.2270513 10.5214438,46.2618284 9.24495506,46.2618284 L9.24484672,46.2618284 C7.96835798,46.2618284 6.93358087,45.2270513 6.93358087,43.9505625 L6.93358087,41.6391883 C6.93358087,40.3626996 7.96835798,39.3279225 9.24484672,39.3279225 Z" id="Shape" fill="#3A27B4"></path>
                                <path d="M9.24484672,6.97041724 L41.6034354,6.97041724 C46.7091736,6.97041724 50.8482821,11.1095257 50.8482821,16.215264 L50.8482821,34.7060408 C50.8482821,39.8117791 46.7091736,43.9508876 41.6034354,43.9508876 L9.24484672,43.9508876 C4.13910845,43.9508876 0,39.8117791 0,34.7060408 L0,16.215264 C0,11.1094174 4.13910845,6.97041724 9.24484672,6.97041724 Z" id="Shape" fill="#CF3B00"></path>
                                <path d="M30.0465644,39.3279225 L41.6027853,39.3279225 C42.8792741,39.3279225 43.9140512,40.3626996 43.9140512,41.6391883 L43.9140512,41.6392967 C43.9140512,42.9157854 42.8792741,43.9505625 41.6027853,43.9505625 L30.0465644,43.9505625 C28.7700757,43.9505625 27.7352986,42.9157854 27.7352986,41.6392967 L27.7352986,41.6391883 C27.7352986,40.3626996 28.7700757,39.3279225 30.0465644,39.3279225 Z" id="Shape" fill="#BB2900"></path>
                                <path d="M36.9809037,6.96998388 L35.8252166,6.96998388 C35.1869722,6.96998388 34.6695295,7.4874266 34.6695295,8.12567097 C34.6695295,8.76391534 35.1869722,9.28135807 35.8252166,9.28135807 L36.9809037,9.28135807 C40.8103699,9.28135807 43.9148096,12.3857977 43.9148096,16.215264 C43.9148096,16.215264 43.9148096,16.215264 43.9148096,16.215264 L43.9148096,34.7057158 C43.9148096,38.535182 40.8103699,41.6396217 36.9809037,41.6396217 C36.9809037,41.6396217 36.9809037,41.6396217 36.9809037,41.6396217 L35.8252166,41.6396217 C35.1869722,41.6396217 34.6695295,42.1570644 34.6695295,42.7953088 C34.6695295,43.4335532 35.1869722,43.9509959 35.8252166,43.9509959 L36.9809037,43.9509959 C42.0868586,43.9509959 46.2260754,39.8117791 46.2260754,34.7058241 L46.2260754,16.215264 C46.2260754,11.109309 42.086967,6.97009222 36.981012,6.97009222 C36.981012,6.96998388 36.9809037,6.96998388 36.9809037,6.96998388 Z" id="Shape" fill="#AC2300"></path>
                                <path d="M9.24484672,6.97041724 L30.0476478,6.97041724 C35.1533861,6.97041724 39.2924946,11.1095257 39.2924946,16.215264 L39.2924946,34.7060408 C39.2924946,39.8117791 35.1533861,43.9508876 30.0476478,43.9508876 L9.24484672,43.9508876 C4.13910845,43.9508876 0,39.8117791 0,34.7060408 L0,16.215264 C0,11.1094174 4.13910845,6.97041724 9.24484672,6.97041724 Z" id="Shape" fill="#FF5300"></path>
                                <g id="Group" transform="translate(9.209094, 6.933906)" fill="#F94511">
                                    <path d="M2.3477772,11.5922989 L6.97009222,11.5922989 C8.24658096,11.5922989 9.28135807,12.627076 9.28135807,13.9035647 L9.28135807,20.837904 C9.28135807,22.1143927 8.24658096,23.1491699 6.97009222,23.1491699 L2.3477772,23.1491699 C1.07128846,23.1491699 0.0365113482,22.1143927 0.0365113482,20.837904 L0.0365113482,13.9035647 C0.0365113482,12.627076 1.07128846,11.5922989 2.3477772,11.5922989 Z" id="Shape"></path>
                                    <path d="M18.5265298,11.5922989 L23.1488448,11.5922989 C24.4253336,11.5922989 25.4601107,12.627076 25.4601107,13.9035647 L25.4601107,20.837904 C25.4601107,22.1143927 24.4253336,23.1491699 23.1488448,23.1491699 L18.5265298,23.1491699 C17.2500411,23.1491699 16.215264,22.1143927 16.215264,20.837904 L16.215264,13.9035647 C16.215264,12.627076 17.2500411,11.5922989 18.5265298,11.5922989 Z" id="Shape"></path>
                                    <path d="M4.65871802,0.0365113482 C5.93531511,0.0365113482 6.97009222,1.07128846 6.97009222,2.3477772 L6.97009222,34.7057158 C6.97009222,35.9822045 5.93531511,37.0169817 4.65882637,37.0169817 L4.65871802,37.0169817 C3.38222929,37.0169817 2.34745217,35.9822045 2.34745217,34.7057158 L2.34745217,2.3477772 C2.34745217,1.07128846 3.38222929,0.0365113482 4.65871802,0.0365113482 Z" id="Shape"></path>
                                    <path d="M20.8374706,0.0365113482 C22.1140677,0.0365113482 23.1488448,1.07128846 23.1488448,2.3477772 L23.1488448,34.7057158 C23.1488448,35.9822045 22.1140677,37.0169817 20.837579,37.0169817 L20.8374706,37.0169817 C19.5609819,37.0169817 18.5262048,35.9822045 18.5262048,34.7057158 L18.5262048,2.3477772 C18.5262048,1.07128846 19.5609819,0.0365113482 20.8374706,0.0365113482 Z" id="Shape"></path>
                                </g>
                                <path d="M6.9339059,11.6530945 L32.3579386,11.6530945 C33.6344273,11.6530945 34.6692045,12.6878716 34.6692045,13.9643603 L34.6692045,13.9644686 C34.6692045,15.2409574 33.6344273,16.2757345 32.3579386,16.2757345 L6.9339059,16.2757345 C5.65741716,16.2757345 4.62264005,15.2409574 4.62264005,13.9644686 L4.62264005,13.9643603 C4.62264005,12.6878716 5.65741716,11.6530945 6.9339059,11.6530945 Z" id="Shape" fill="#000000" opacity="0.12"></path>
                                <g id="Group" transform="translate(6.825564, 34.669529)" fill="#F93A03">
                                    <path d="M23.2214342,4.65871802 L23.2214342,9.28135807 C28.3273891,9.28135807 32.4666059,5.14214128 32.4666059,0.0361863214 L27.8439659,0.0361863214 C27.8439659,2.58905546 25.7744116,4.65871802 23.2214342,4.65871802 Z" id="Shape"></path>
                                    <path d="M2.4192831,4.658393 L23.2214342,4.658393 C24.4979229,4.658393 25.5327,5.69317011 25.5327,6.96965885 L25.5327,6.96976719 C25.5327,8.24625593 24.4979229,9.28103304 23.2214342,9.28103304 L2.4192831,9.28103304 C1.14279437,9.28103304 0.108017253,8.24625593 0.108017253,6.96976719 L0.108017253,6.96965885 C0.108017253,5.69317011 1.14279437,4.658393 2.4192831,4.658393 Z" id="Shape"></path>
                                </g>
                                <path d="M11.556871,9.34215363 L11.5569793,9.34215363 C12.833468,9.34215363 13.8682452,10.3769307 13.8682452,11.6534195 L13.8682452,34.7665114 C13.8682452,36.0430001 12.833468,37.0777772 11.5569793,37.0777772 L11.556871,37.0777772 C10.2803822,37.0777772 9.24560512,36.0430001 9.24560512,34.7665114 L9.24560512,11.6534195 C9.24560512,10.3769307 10.2803822,9.34215363 11.556871,9.34215363 Z" id="Shape" fill="#FFFFFF" opacity="0.169898624"></path>
                                <path d="M27.7356236,9.34215363 C29.0122207,9.34215363 30.0469978,10.3769307 30.0469978,11.6534195 L30.0469978,34.7665114 C30.0469978,36.0430001 29.0122207,37.0777772 27.7357319,37.0777772 L27.7356236,37.0777772 C26.4591348,37.0777772 25.4243577,36.0430001 25.4243577,34.7665114 L25.4243577,11.6534195 C25.4243577,10.3769307 26.4591348,9.34215363 27.7356236,9.34215363 Z" id="Shape" fill="#FFFFFF" opacity="0.169898624"></path>
                                <g id="Group" transform="translate(6.933906, 18.526530)" fill="#FFFFFF" opacity="0.219308036">
                                    <path d="M6.9339059,-2.53424366e-14 L2.31137419,-2.53424366e-14 C1.03488546,-2.53424366e-14 0.00010834228,1.03466877 0.00010834228,2.31115751 C0.00010834228,2.31115751 0.00010834228,2.31126585 0.00010834228,2.31126585 L0.00010834228,9.24517175 C0.00010834228,10.5216605 1.03488546,11.5564376 2.31137419,11.5564376 L6.9339059,11.5564376 C8.21039464,11.5564376 9.24517175,10.5216605 9.24517175,9.24517175 L9.24517175,2.31126585 C9.24517175,1.03477711 8.21050298,-2.84217094e-14 6.93401424,-2.84217094e-14 C6.93401424,-2.53424366e-14 6.93401424,-2.53424366e-14 6.9339059,-2.53424366e-14 Z M6.9339059,9.24517175 L2.31137419,9.24517175 L2.31137419,6.9339059 L6.9339059,6.9339059 L6.9339059,9.24517175 Z" id="Shape"></path>
                                    <path d="M23.1130919,-2.53424366e-14 L18.4904518,-2.53424366e-14 C17.2139631,-2.53424366e-14 16.179186,1.03466877 16.179186,2.31115751 C16.179186,2.31115751 16.179186,2.31126585 16.179186,2.31126585 L16.179186,9.24517175 C16.179186,10.5216605 17.2139631,11.5564376 18.4904518,11.5564376 L23.1130919,11.5564376 C24.3895806,11.5564376 25.4243577,10.5216605 25.4243577,9.24517175 L25.4243577,2.31126585 C25.4243577,1.03477711 24.389689,-2.84217094e-14 23.1132002,-2.84217094e-14 C23.1130919,-2.53424366e-14 23.1130919,-2.53424366e-14 23.1130919,-2.53424366e-14 Z M23.1130919,9.24517175 L18.4904518,9.24517175 L18.4904518,6.9339059 L23.1130919,6.9339059 L23.1130919,9.24517175 Z" id="Shape"></path>
                                </g>
                                <path d="M36.9804703,13.9043231 C38.2570674,13.9043231 39.2918445,14.9391003 39.2918445,16.215589 L39.2918445,34.7057158 C39.2918445,35.9822045 38.2570674,37.0169817 36.9805786,37.0169817 L36.9804703,37.0169817 C35.7039816,37.0169817 34.6692045,35.9822045 34.6692045,34.7057158 L34.6692045,16.215589 C34.6692045,14.9391003 35.7039816,13.9043231 36.9804703,13.9043231 Z" id="Shape" fill="#F93A03"></path>
                                <g id="Group" transform="translate(9.209094, 25.352093)" fill="#FFFFFF" opacity="0.773660714">
                                    <path d="M1.19219845,0.108017253 L3.5034643,0.108017253 C4.14170867,0.108017253 4.65915139,0.62545998 4.65915139,1.26370435 C4.65915139,1.90194872 4.14170867,2.41939145 3.5034643,2.41939145 L1.19219845,2.41939145 C0.553954076,2.41939145 0.0365113482,1.90194872 0.0365113482,1.26370435 C0.0365113482,0.625351638 0.553954076,0.108017253 1.19219845,0.108017253 Z" id="Shape"></path>
                                    <path d="M17.3709511,0.108017253 L19.6822169,0.108017253 C20.3204613,0.108017253 20.837904,0.62545998 20.837904,1.26370435 C20.837904,1.90194872 20.3204613,2.41939145 19.6822169,2.41939145 L17.3709511,2.41939145 C16.7327067,2.41939145 16.215264,1.90194872 16.215264,1.26370435 C16.215264,0.625351638 16.7327067,0.108017253 17.3709511,0.108017253 Z" id="Shape"></path>
                                </g>
                                <g id="Group" transform="translate(9.209094, 18.418188)" fill="#FFFFFF" opacity="0.773660714">
                                    <path d="M1.19219845,0.108017253 L3.5034643,0.108017253 C4.14170867,0.108017253 4.65915139,0.62545998 4.65915139,1.26370435 C4.65915139,1.90194872 4.14170867,2.41939145 3.5034643,2.41939145 L1.19219845,2.41939145 C0.553954076,2.41939145 0.0365113482,1.90194872 0.0365113482,1.26370435 C0.0365113482,0.625351638 0.553954076,0.108017253 1.19219845,0.108017253 Z" id="Shape"></path>
                                    <path d="M17.3709511,0.108017253 L19.6822169,0.108017253 C20.3204613,0.108017253 20.837904,0.62545998 20.837904,1.26370435 C20.837904,1.90194872 20.3204613,2.41939145 19.6822169,2.41939145 L17.3709511,2.41939145 C16.7327067,2.41939145 16.215264,1.90194872 16.215264,1.26370435 C16.215264,0.625351638 16.7327067,0.108017253 17.3709511,0.108017253 Z" id="Shape"></path>
                                </g>
                                <path d="M40.4477483,13.9043231 C41.0859927,13.9043231 41.6034354,14.4217659 41.6034354,15.0600102 L41.6034354,35.8612946 C41.6034354,36.4995389 41.0859927,37.0169817 40.4477483,37.0169817 C39.8095039,37.0169817 39.2920612,36.4995389 39.2920612,35.8612946 L39.2920612,15.0600102 C39.2921695,14.4216575 39.8096123,13.9043231 40.4477483,13.9043231 Z" id="Shape" fill="#BB2900"></path>
                                <path d="M47.3816542,13.9043231 C48.0198985,13.9043231 48.5373413,14.4217659 48.5373413,15.0600102 L48.5373413,35.8612946 C48.5373413,36.4995389 48.0198985,37.0169817 47.3816542,37.0169817 C46.7434098,37.0169817 46.2259671,36.4995389 46.2259671,35.8612946 L46.2259671,15.0600102 C46.2260754,14.4216575 46.7435182,13.9043231 47.3816542,13.9043231 Z" id="Shape" fill="#D55421"></path>
                                <path d="M17.3351981,2.34745217 L28.8916357,2.34745217 C29.5298801,2.34745217 30.0473228,2.8648949 30.0473228,3.50313927 C30.0473228,4.14138364 29.5298801,4.65871802 28.8916357,4.65871802 L17.3351981,4.65871802 C16.6969537,4.65871802 16.179511,4.1412753 16.179511,3.50313927 C16.179511,2.86478656 16.6969537,2.34745217 17.3351981,2.34745217 Z" id="Shape" fill="#FFFFFF" opacity="0.18"></path>
                            </g>
                        </g>
                        <rect id="Rectangle" fill="#1F36CC" opacity="0.1" x="0.983009546" y="13.4824618" width="42" height="42" rx="16"></rect>
                        <rect id="Rectangle-Copy-2" fill="#1F36CC" opacity="0.1" x="66.8726902" y="0.676213049" width="25.19061" height="25.19061" rx="10"></rect>
                    </g>
                </g>
            </g>
        </g>
    </g>
</svg>