<?xml version="1.0" encoding="UTF-8"?>
<svg width="131px" height="117px" viewBox="0 0 131 117" version="1.1" xmlns="http://www.w3.org/2000/svg" xmlns:xlink="http://www.w3.org/1999/xlink">
    <!-- Generator: Sketch 52.2 (67145) - http://www.bohemiancoding.com/sketch -->
    <title>Group 11</title>
    <desc>Created with Sketch.</desc>
    <defs>
        <polygon id="path-1" points="0.554731368 0.736844859 3.43664111 0.736844859 3.43664111 49.7238201 0.554731368 49.7238201"></polygon>
        <path d="M4.75587621,3.47341602 C0.607044971,14.536966 0.0797652948,26.980352 0.538674718,33.1015614 C1.02555379,39.589484 3.86395519,44.1298904 6.78315779,43.6968788 C9.373976,43.313591 12.2973223,39.803918 12.0538827,28.5590833 C11.8104432,17.3132126 9.62052328,7.36637677 8.16195789,3.47341602 C7.47929128,1.65331702 6.95822708,0.787293819 6.45062975,0.787293819 C5.9254219,0.787293819 5.41575274,1.71443588 4.75587621,3.47341602" id="path-3"></path>
        <linearGradient x1="-25.792928%" y1="112.201617%" x2="65.8710037%" y2="4.59945101%" id="linearGradient-5">
            <stop stop-color="#182BA3" offset="0%"></stop>
            <stop stop-color="#8695FB" offset="100%"></stop>
        </linearGradient>
        <path d="M7.2006307,4.9796334 C0.698205307,22.3197798 -0.127417289,41.8239482 0.591506277,51.4175377 C1.35393819,61.585023 5.80318417,68.7027807 10.3788115,68.0242577 C14.4395902,67.4244642 19.021433,61.9237666 18.6402171,44.2977082 C18.2590011,26.6737218 14.8270216,11.0811605 12.53869,4.9796334 C11.4696278,2.12776514 10.6522925,0.769683299 9.85774734,0.769683299 C9.03419657,0.768647386 8.23447179,2.22203321 7.2006307,4.9796334" id="path-6"></path>
        <path d="M11.8332333,2.59703369 C1.17679708,13.252434 -0.178177022,25.2400183 1.00172779,31.1343628 C2.25207469,37.3840254 9.5417939,41.7586857 17.0407675,41.3422487 C23.6954721,40.9713919 31.2058408,37.5932798 30.5811853,26.7607384 C29.9565298,15.928197 24.3315226,6.34600254 20.5815179,2.59703369 C18.8287532,0.844269029 17.4903537,0.00932321627 16.1871753,0.00932321627 C14.8384167,0.00932321627 13.5279868,0.902280153 11.8332333,2.59703369" id="path-8"></path>
        <polygon id="path-10" points="14.7759511 23.5572813 16.5463263 23.5572813 16.5463263 45.5801684 14.7759511 45.5801684"></polygon>
        <path d="M6.94786795,2.53695074 C0.385359606,9.09842317 -0.447514381,16.4793027 0.277624662,20.1101775 C1.04730796,23.958594 5.53695455,26.6509317 10.1540184,26.3960971 C14.2531259,26.1681962 18.8774411,24.0870472 18.4920815,17.4168039 C18.1067219,10.7465606 14.643665,4.84600064 12.335651,2.53695074 C11.2562298,1.45752948 10.4316431,0.943716669 9.62881058,0.943716669 C8.79904433,0.943716669 7.99206817,1.49378643 6.94786795,2.53695074" id="path-12"></path>
        <polygon id="path-14" points="0.472583474 0.941230478 1.56236386 0.941230478 1.56236386 14.5027809 0.472583474 14.5027809"></polygon>
    </defs>
    <g id="Landing-Page" stroke="none" stroke-width="1" fill="none" fill-rule="evenodd">
        <g transform="translate(-986.000000, -3059.000000)" id="Group-32">
            <g transform="translate(200.000000, 2927.168028)">
                <g id="Group-30" transform="translate(784.000000, 131.000000)">
                    <g id="Group-11" transform="translate(0.503032, 0.862900)">
                        <g id="cityscape" transform="translate(60.633120, 1.482462)">
                            <path d="M31.9312393,8.4157293 C31.9312393,12.7493324 28.4185288,16.262043 24.0856972,16.262043 C19.7520941,16.262043 16.2393835,12.7493324 16.2393835,8.4157293 C16.2393835,4.08289769 19.7520941,0.570187219 24.0856972,0.570187219 C28.4185288,0.570187219 31.9312393,4.08289769 31.9312393,8.4157293 Z" id="Path" fill="#F0C419" opacity="0.356119792"></path>
                            <path d="M30.3616371,18.4524759 C30.3616371,21.4854431 27.9029062,23.9441742 24.869939,23.9441742 L6.82420071,23.9441742 C3.35795247,23.9441742 0.547874971,21.1340967 0.547874971,17.6678485 C0.547874971,14.2016003 3.35795247,11.3908284 6.82420071,11.3908284 C7.36510751,11.3929114 7.90393135,11.4665137 8.42539623,11.6109407 C8.77535398,7.87389191 11.9874663,5.0631201 15.7384023,5.21379631 C19.4886442,5.36377821 22.4660626,8.42243672 22.5160565,12.1754559 C22.5167509,12.6448436 22.4695343,13.1128428 22.3751013,13.5725094 C23.1444529,13.1683916 24.0005995,12.9580003 24.869939,12.9600835 C27.9029062,12.9600835 30.3616371,15.4195087 30.3616371,18.4524759 Z" id="Path" fill-opacity="0.6" fill="#A4C4EC" opacity="0.328822545"></path>
                        </g>
                        <g id="Group-116" opacity="0.402878534" transform="translate(67.192357, 72.344888) scale(-1, 1) translate(-67.192357, -72.344888) translate(0.692357, 27.344888)">
                            <g id="Group-13" transform="translate(20.972448, 38.154248)">
                                <g id="Group-8" transform="translate(0.007531, 0.812707)">
                                    <mask id="mask-2" fill="white">
                                        <use xlink:href="#path-1"></use>
                                    </mask>
                                    <g id="Clip-7"></g>
                                </g>
                            </g>
                            <g id="Group-29" transform="translate(119.391706, 33.787391)">
                                <mask id="mask-4" fill="white">
                                    <use xlink:href="#path-3"></use>
                                </mask>
                                <g id="Clip-28"></g>
                                <path d="M4.75587621,3.47341602 C0.607044971,14.536966 0.0797652948,26.980352 0.538674718,33.1015614 C1.02555379,39.589484 3.86395519,44.1298904 6.78315779,43.6968788 C9.373976,43.313591 12.2973223,39.803918 12.0538827,28.5590833 C11.8104432,17.3132126 9.62052328,7.36637677 8.16195789,3.47341602 C7.47929128,1.65331702 6.95822708,0.787293819 6.45062975,0.787293819 C5.9254219,0.787293819 5.41575274,1.71443588 4.75587621,3.47341602" id="Fill-27" fill="url(#linearGradient-5)" mask="url(#mask-4)"></path>
                            </g>
                            <g id="Group-38" transform="translate(119.391706, 40.002868)">
                                <path d="M3.65718697,0.48190669 C0.515263086,10.6556075 0.123688003,21.3524443 0.539089083,26.8852552 C1.02493224,33.3731778 3.86333364,37.91462 6.78357216,37.4816084 C9.16927961,37.1283621 11.8346836,34.120071 12.0522253,24.8641891 C6.68826817,39.4239451 0.809462355,23.283386 3.65718697,0.48190669" id="Fill-30" fill="#FFFFFF" opacity="0.218814"></path>
                                <polygon id="Fill-32" fill="#12207A" opacity="0.425571987" points="6.39469045 24.8086641 5.62293532 46.2644925 6.88571317 46.2644925"></polygon>
                                <polygon id="Fill-34" fill="#A35E1A" points="4.17358956 33.2700009 6.18429654 36.3777396 6.32518069 35.1149618"></polygon>
                                <polygon id="Fill-36" fill="#12207A" opacity="0.425571987" points="6.32486992 32.1905796 6.32486992 33.1529427 8.60491425 30.234776"></polygon>
                            </g>
                            <g id="Group-41" transform="translate(100.745274, 0.638178)">
                                <mask id="mask-7" fill="white">
                                    <use xlink:href="#path-6"></use>
                                </mask>
                                <g id="Clip-40"></g>
                                <path d="M7.2006307,4.9796334 C0.698205307,22.3197798 -0.127417289,41.8239482 0.591506277,51.4175377 C1.35393819,61.585023 5.80318417,68.7027807 10.3788115,68.0242577 C14.4395902,67.4244642 19.021433,61.9237666 18.6402171,44.2977082 C18.2590011,26.6737218 14.8270216,11.0811605 12.53869,4.9796334 C11.4696278,2.12776514 10.6522925,0.769683299 9.85774734,0.769683299 C9.03419657,0.768647386 8.23447179,2.22203321 7.2006307,4.9796334" id="Fill-39" fill="url(#linearGradient-5)" mask="url(#mask-7)"></path>
                            </g>
                            <g id="Group-50" transform="translate(100.745274, 9.961394)">
                                <path d="M5.47915061,0.70960035 C0.555456507,16.6574797 -0.0588398538,33.4226944 0.591713459,42.0932856 C1.35414537,52.2618068 5.80235544,59.3795644 10.3779828,58.7010415 C14.1176284,58.147864 18.2965012,53.4323884 18.6373165,38.9275357 C10.2308832,61.7455895 1.01540184,36.4485961 5.47915061,0.70960035" id="Fill-42" fill="#FFFFFF" opacity="0.218814"></path>
                                <polygon id="Fill-44" fill="#12207A" opacity="0.425571987" points="9.77000551 38.8380328 8.56109514 72.4679098 10.5396888 72.4679098"></polygon>
                                <polygon id="Fill-46" fill="#12207A" opacity="0.425571987" points="6.28840578 52.0995828 9.43965288 56.9714813 9.66030234 54.9939235"></polygon>
                                <polygon id="Fill-48" fill="#12207A" opacity="0.425571987" points="9.66019874 50.4081442 9.66019874 51.9164334 13.2330624 47.3449497"></polygon>
                            </g>
                            <g id="Group-79" transform="translate(0.938504, 43.110607)">
                                <g id="Group-17" transform="translate(0.225470, 0.000000)">
                                    <mask id="mask-9" fill="white">
                                        <use xlink:href="#path-8"></use>
                                    </mask>
                                    <g id="Clip-78"></g>
                                    <path d="M11.8332333,2.59703369 C1.17679708,13.252434 -0.178177022,25.2400183 1.00172779,31.1343628 C2.25207469,37.3840254 9.5417939,41.7586857 17.0407675,41.3422487 C23.6954721,40.9713919 31.2058408,37.5932798 30.5811853,26.7607384 C29.9565298,15.928197 24.3315226,6.34600254 20.5815179,2.59703369 C18.8287532,0.844269029 17.4903537,0.00932321627 16.1871753,0.00932321627 C14.8384167,0.00932321627 13.5279868,0.902280153 11.8332333,2.59703369" id="Fill-77" fill="url(#linearGradient-5)" mask="url(#mask-9)"></path>
                                    <path d="M9.01171726,5.70301139 C0.940919704,15.5027476 -0.0639158271,25.8059375 1.00100265,31.1346736 C2.25134955,37.3843362 9.54210467,41.7589965 17.0400424,41.3415235 C23.1695391,41.0007082 30.0169235,38.1032598 30.5752806,29.1892291 C16.7986747,43.2123823 1.69713614,27.6654012 9.01171726,5.70301139" id="Fill-80" fill="#FFFFFF" opacity="0.24" mask="url(#mask-9)"></path>
                                    <mask id="mask-11" fill="white">
                                        <use xlink:href="#path-10"></use>
                                    </mask>
                                    <g id="Clip-83"></g>
                                    <polygon id="Fill-82" fill="#12207A" opacity="0.425571987" mask="url(#mask-11)" points="15.8574442 23.5572813 14.7759511 45.58079 16.5463263 45.58079"></polygon>
                                    <polygon id="Fill-85" fill="#12207A" opacity="0.425571987" mask="url(#mask-11)" points="10.0562283 32.0135421 15.5621054 39.7808171 15.7589289 38.0114779"></polygon>
                                    <polygon id="Fill-87" fill="#12207A" opacity="0.425571987" mask="url(#mask-11)" points="15.7593432 33.9093663 15.7593432 35.2581249 21.3636321 30.8327049"></polygon>
                                </g>
                            </g>
                            <g id="Group-89" transform="translate(1.163974, 48.290172)">
                                <g id="Group-84" transform="translate(14.502781, 17.610520)"></g>
                            </g>
                            <g id="Group-105" transform="translate(106.960751, 59.685214)">
                                <mask id="mask-13" fill="white">
                                    <use xlink:href="#path-12"></use>
                                </mask>
                                <g id="Clip-104"></g>
                                <path d="M6.94786795,2.53695074 C0.385359606,9.09842317 -0.447514381,16.4793027 0.277624662,20.1101775 C1.04730796,23.958594 5.53695455,26.6509317 10.1540184,26.3960971 C14.2531259,26.1681962 18.8774411,24.0870472 18.4920815,17.4168039 C18.1067219,10.7465606 14.643665,4.84600064 12.335651,2.53695074 C11.2562298,1.45752948 10.4316431,0.943716669 9.62881058,0.943716669 C8.79904433,0.943716669 7.99206817,1.49378643 6.94786795,2.53695074" id="Fill-103" fill="url(#linearGradient-5)" mask="url(#mask-13)"></path>
                            </g>
                            <g id="Group-115" transform="translate(106.960751, 63.828866)">
                                <path d="M5.21053839,0.305905085 C0.241264119,6.34009784 -0.37924772,12.6850645 0.277521071,15.9668366 C1.04720437,19.8152531 5.53685096,22.5086267 10.1539148,22.2527562 C13.9287815,22.04143 18.1449471,20.2575879 18.4888702,14.7682853 C10.0047434,23.4036554 0.70638902,13.8307842 5.21053839,0.305905085" id="Fill-106" fill="#FFFFFF" opacity="0.24"></path>
                                <g id="Group-110" transform="translate(8.287303, 10.359129)">
                                    <mask id="mask-15" fill="white">
                                        <use xlink:href="#path-14"></use>
                                    </mask>
                                    <g id="Clip-109"></g>
                                    <polygon id="Fill-108" fill="#12207A" opacity="0.425571987" mask="url(#mask-15)" points="1.13867548 0.941230478 0.472583474 14.5034024 1.56236386 14.5034024"></polygon>
                                </g>
                                <polygon id="Fill-111" fill="#12207A" opacity="0.425571987" points="5.85342595 16.5072724 9.24396893 21.2911182 9.36517075 20.2003019"></polygon>
                                <polygon id="Fill-113" fill="#12207A" opacity="0.425571987" points="9.36527434 17.6746426 9.36527434 18.5064807 12.8169362 15.7809938"></polygon>
                            </g>
                        </g>
                        <g id="029-hotel" transform="translate(24.484961, 37.761264)" fill-rule="nonzero">
                            <path d="M41.7867999,0.350779933 C37.5908565,0.350779933 34.1892647,3.75237169 34.1892647,7.94831517 L34.1892647,65.1823905 C34.1892647,69.378334 37.5906784,72.7799258 41.7867999,72.7799258 L79.774209,72.7799258 L79.774209,7.94831517 C79.774209,3.75237169 76.3726173,0.350779933 72.1766738,0.350779933 L41.7867999,0.350779933 Z" id="Shape" fill="#182BA3"></path>
                            <path d="M11.3969261,12 C7.20098261,12 3.79939085,15.4015918 3.79939085,19.5975352 L3.79939085,65.1823905 C3.79939085,69.378334 7.20080454,72.7799258 11.3969261,72.7799258 L41.7867999,72.7799258 L41.7867999,19.5975352 C41.7867999,15.4015918 38.3852082,12 34.1892647,12 L11.3969261,12 Z" id="Shape-Copy-3" fill="#182BA3"></path>
                            <path d="M32.2899254,13.8009532 L43.685427,13.8009532 C44.7344128,13.8009532 45.5848553,14.6513956 45.5848553,15.7003815 C45.5848553,16.7493674 44.7344128,17.5998098 43.685427,17.5998098 L32.2899254,17.5998098 C31.2409395,17.5998098 30.3904971,16.7493674 30.3904971,15.7003815 C30.3906751,14.6513956 31.2409395,13.8009532 32.2899254,13.8009532 Z" id="Shape" fill="#FFFFFF" opacity="0.137718564"></path>
                            <g id="Group" transform="translate(3.739383, 0.000000)" fill="#4B5ED6">
                                <path d="M22.8524358,12 L7.65754343,12 C3.46159995,12 0.0600081884,15.4014137 0.0600081884,19.5973572 C0.0600081884,19.5973572 0.0600081884,19.5975352 0.0600081884,19.5975352 L0.0600081884,76.5786043 L22.8524358,76.5786043 L22.8524358,19.5975352 C22.8524358,15.4015918 26.2538495,12.0001781 30.4499711,12 C30.4499711,12 30.4499711,12 30.4499711,12 L22.8524358,12 Z" id="Shape"></path>
                                <path d="M53.2423987,0.350779933 L38.0475063,0.350779933 C33.8515628,0.350779933 30.4501491,3.75219363 30.4499711,7.9481371 L30.4499711,76.5786043 L53.2423987,76.5786043 L53.2423987,7.94831517 C53.2423987,3.75237169 56.6438124,0.350957999 60.839934,0.350779933 L53.2423987,0.350779933 Z" id="Shape"></path>
                            </g>
                            <g id="Group" transform="translate(11.396214, 19.478765)" fill="#E5E2F5" opacity="0.204310826">
                                <polygon id="Shape" points="0.000712263364 0.118769916 7.5982475 0.118769916 7.5982475 11.5149837 0.000712263364 11.5149837"></polygon>
                                <polygon id="Shape" points="0.000712263364 15.3136623 7.5982475 15.3136623 7.5982475 26.7098761 0.000712263364 26.7098761"></polygon>
                                <polygon id="Shape" points="0.000712263364 30.5087328 7.5982475 30.5087328 7.5982475 41.9049466 0.000712263364 41.9049466"></polygon>
                                <polygon id="Shape" points="30.3906751 0.118769916 37.9882104 0.118769916 37.9882104 11.5149837 30.3906751 11.5149837 30.3906751 0.118769916"></polygon>
                                <polygon id="Shape" points="30.3906751 15.3136623 37.9882104 15.3136623 37.9882104 26.7098761 30.3906751 26.7098761 30.3906751 15.3136623"></polygon>
                                <polygon id="Shape" points="30.3906751 30.5087328 37.9882104 30.5087328 37.9882104 41.9049466 30.3906751 41.9049466 30.3906751 30.5087328"></polygon>
                            </g>
                            <g id="Group" transform="translate(64.459834, 19.478765)" fill="#FFFFFF" opacity="0.118071057">
                                <polygon id="Shape" points="0.119482179 0.118769916 7.71701742 0.118769916 7.71701742 11.5149837 0.119482179 11.5149837 0.119482179 0.118769916"></polygon>
                                <polygon id="Shape" points="0.119482179 15.3136623 7.71701742 15.3136623 7.71701742 26.7098761 0.119482179 26.7098761 0.119482179 15.3136623"></polygon>
                                <polygon id="Shape" points="0.119482179 30.5087328 7.71701742 30.5087328 7.71701742 41.9049466 0.119482179 41.9049466 0.119482179 30.5087328"></polygon>
                            </g>
                            <path d="M3.79939085,68.9805349 L79.7734968,68.9805349 C81.8714685,68.9805349 83.5721753,70.6812418 83.5721753,72.7792135 L83.5721753,72.7793916 C83.5721753,74.8773633 81.8714685,76.5780702 79.7734968,76.5780702 L3.79939085,76.5780702 C1.70141911,76.5780702 0.000712263364,74.8773633 0.000712263364,72.7793916 L0.000712263364,72.7792135 C0.000712263364,70.6812418 1.70141911,68.9805349 3.79939085,68.9805349 Z" id="Shape" fill="#12207A"></path>
                            <path d="M3.79939085,68.9805349 L56.9810691,68.9805349 C59.0790409,68.9805349 60.7797477,70.6812418 60.7797477,72.7792135 L60.7797477,72.7793916 C60.7797477,74.8773633 59.0790409,76.5780702 56.9810691,76.5780702 L3.79939085,76.5780702 C1.70141911,76.5780702 0.000712263364,74.8773633 0.000712263364,72.7793916 L0.000712263364,72.7792135 C0.000712263364,70.6812418 1.70141911,68.9805349 3.79939085,68.9805349 Z" id="Shape" fill="#4B5ED6"></path>
                            <path d="M13.2956421,19.5975352 C14.344628,19.5975352 15.1948924,20.4479777 15.1948924,21.4969636 L15.1948924,29.0943207 C15.1948924,30.1433066 14.34445,30.9937491 13.2956421,30.9937491 C12.2466563,30.9937491 11.3962138,30.1433066 11.3962138,29.0943207 L11.3962138,21.4969636 C11.3963919,20.4479777 12.2466563,19.5975352 13.2956421,19.5975352 Z" id="Shape" fill="#D2CDEE"></path>
                            <g id="Group" transform="translate(18.874979, 19.478765)" fill="#A5AEEA">
                                <path d="M2.01873244,0.118769916 C3.06771831,0.118769916 3.9179827,0.969212372 3.9179827,2.01819824 L3.9179827,9.61555541 C3.9179827,10.6645413 3.06754024,11.5149837 2.01873244,11.5149837 C0.96974657,11.5149837 0.119304113,10.6645413 0.119304113,9.61555541 L0.119304113,2.01819824 C0.119482179,0.969212372 0.96974657,0.118769916 2.01873244,0.118769916 Z" id="Shape"></path>
                                <path d="M2.01873244,15.3131281 C3.06771831,15.3131281 3.9179827,16.1635706 3.9179827,17.2125565 L3.9179827,24.8099136 C3.9179827,25.8588995 3.06754024,26.7093419 2.01873244,26.7093419 C0.96974657,26.7093419 0.119304113,25.8588995 0.119304113,24.8099136 L0.119304113,17.2125565 C0.119482179,16.1635706 0.96974657,15.3131281 2.01873244,15.3131281 Z" id="Shape"></path>
                                <path d="M2.01873244,30.509267 C3.06771831,30.509267 3.9179827,31.3597095 3.9179827,32.4086953 L3.9179827,40.0060525 C3.9179827,41.0550384 3.06754024,41.9054808 2.01873244,41.9054808 C0.96974657,41.9054808 0.119304113,41.0550384 0.119304113,40.0060525 L0.119304113,32.4086953 C0.119482179,31.3597095 0.96974657,30.509267 2.01873244,30.509267 Z" id="Shape"></path>
                                <path d="M32.4092295,0.118769916 C33.4582154,0.118769916 34.3086578,0.969212372 34.3086578,2.01819824 L34.3086578,9.61555541 C34.3086578,10.6645413 33.4582154,11.5149837 32.4092295,11.5149837 C31.3602436,11.5149837 30.5098012,10.6645413 30.5098012,9.61555541 L30.5098012,2.01819824 C30.5099793,0.969212372 31.3602436,0.118769916 32.4092295,0.118769916 Z" id="Shape"></path>
                                <path d="M32.4092295,15.3131281 C33.4582154,15.3131281 34.3086578,16.1635706 34.3086578,17.2125565 L34.3086578,24.8099136 C34.3086578,25.8588995 33.4582154,26.7093419 32.4092295,26.7093419 C31.3602436,26.7093419 30.5098012,25.8588995 30.5098012,24.8099136 L30.5098012,17.2125565 C30.5099793,16.1635706 31.3602436,15.3131281 32.4092295,15.3131281 Z" id="Shape"></path>
                                <path d="M32.4092295,30.509267 C33.4582154,30.509267 34.3086578,31.3597095 34.3086578,32.4086953 L34.3086578,40.0060525 C34.3086578,41.0550384 33.4582154,41.9054808 32.4092295,41.9054808 C31.3602436,41.9054808 30.5098012,41.0550384 30.5098012,40.0060525 L30.5098012,32.4086953 C30.5099793,31.3597095 31.3602436,30.509267 32.4092295,30.509267 Z" id="Shape"></path>
                            </g>
                            <g id="Group" transform="translate(72.116666, 19.478765)" fill="#FFFFFF" opacity="0.179082961">
                                <path d="M1.95997071,0.118769916 C3.00895658,0.118769916 3.85939904,0.969212372 3.85939904,2.01819824 L3.85939904,9.61555541 C3.85939904,10.6645413 3.00895658,11.5149837 1.95997071,11.5149837 C0.910984842,11.5149837 0.0605423859,10.6645413 0.0605423859,9.61555541 L0.0605423859,2.01819824 C0.0607204518,0.969212372 0.910984842,0.118769916 1.95997071,0.118769916 Z" id="Shape"></path>
                                <path d="M1.95997071,15.3131281 C3.00895658,15.3131281 3.85939904,16.1635706 3.85939904,17.2125565 L3.85939904,24.8099136 C3.85939904,25.8588995 3.00895658,26.7093419 1.95997071,26.7093419 C0.910984842,26.7093419 0.0605423859,25.8588995 0.0605423859,24.8099136 L0.0605423859,17.2125565 C0.0607204518,16.1635706 0.910984842,15.3131281 1.95997071,15.3131281 Z" id="Shape"></path>
                                <path d="M1.95997071,30.509267 C3.00895658,30.509267 3.85939904,31.3597095 3.85939904,32.4086953 L3.85939904,40.0060525 C3.85939904,41.0550384 3.00895658,41.9054808 1.95997071,41.9054808 C0.910984842,41.9054808 0.0605423859,41.0550384 0.0605423859,40.0060525 L0.0605423859,32.4086953 C0.0607204518,31.3597095 0.910984842,30.509267 1.95997071,30.509267 Z" id="Shape"></path>
                            </g>
                            <g id="Group" transform="translate(11.396214, 19.478765)" fill="#D2CDEE">
                                <path d="M32.2899254,0.118769916 C33.3389113,0.118769916 34.1893537,0.969212372 34.1893537,2.01819824 L34.1893537,9.61555541 C34.1893537,10.6645413 33.3389113,11.5149837 32.2899254,11.5149837 C31.2409395,11.5149837 30.3904971,10.6645413 30.3904971,9.61555541 L30.3904971,2.01819824 C30.3906751,0.969212372 31.2409395,0.118769916 32.2899254,0.118769916 Z" id="Shape"></path>
                                <path d="M1.89942833,15.3131281 C2.94841419,15.3131281 3.79867859,16.1635706 3.79867859,17.2125565 L3.79867859,24.8099136 C3.79867859,25.8588995 2.94823613,26.7093419 1.89942833,26.7093419 C0.850442457,26.7093419 0,25.8588995 0,24.8099136 L0,17.2125565 C0.000178065841,16.1635706 0.850442457,15.3131281 1.89942833,15.3131281 Z" id="Shape"></path>
                                <path d="M32.2899254,15.3131281 C33.3389113,15.3131281 34.1893537,16.1635706 34.1893537,17.2125565 L34.1893537,24.8099136 C34.1893537,25.8588995 33.3389113,26.7093419 32.2899254,26.7093419 C31.2409395,26.7093419 30.3904971,25.8588995 30.3904971,24.8099136 L30.3904971,17.2125565 C30.3906751,16.1635706 31.2409395,15.3131281 32.2899254,15.3131281 Z" id="Shape"></path>
                                <path d="M1.89942833,30.509267 C2.94841419,30.509267 3.79867859,31.3597095 3.79867859,32.4086953 L3.79867859,40.0060525 C3.79867859,41.0550384 2.94823613,41.9054808 1.89942833,41.9054808 C0.850442457,41.9054808 0,41.0550384 0,40.0060525 L0,32.4086953 C0.000178065841,31.3597095 0.850442457,30.509267 1.89942833,30.509267 Z" id="Shape"></path>
                                <path d="M32.2899254,30.509267 C33.3389113,30.509267 34.1893537,31.3597095 34.1893537,32.4086953 L34.1893537,40.0060525 C34.1893537,41.0550384 33.3389113,41.9054808 32.2899254,41.9054808 C31.2409395,41.9054808 30.3904971,41.0550384 30.3904971,40.0060525 L30.3904971,32.4086953 C30.3906751,31.3597095 31.2409395,30.509267 32.2899254,30.509267 Z" id="Shape"></path>
                            </g>
                            <g id="Group" transform="translate(64.459834, 19.478765)" fill="#FFFFFF" opacity="0.118071057">
                                <path d="M2.01873244,0.118769916 C3.06771831,0.118769916 3.91816076,0.969212372 3.91816076,2.01819824 L3.91816076,9.61555541 C3.91816076,10.6645413 3.06771831,11.5149837 2.01873244,11.5149837 C0.96974657,11.5149837 0.119304113,10.6645413 0.119304113,9.61555541 L0.119304113,2.01819824 C0.119482179,0.969212372 0.96974657,0.118769916 2.01873244,0.118769916 Z" id="Shape"></path>
                                <path d="M2.01873244,15.3131281 C3.06771831,15.3131281 3.91816076,16.1635706 3.91816076,17.2125565 L3.91816076,24.8099136 C3.91816076,25.8588995 3.06771831,26.7093419 2.01873244,26.7093419 C0.96974657,26.7093419 0.119304113,25.8588995 0.119304113,24.8099136 L0.119304113,17.2125565 C0.119482179,16.1635706 0.96974657,15.3131281 2.01873244,15.3131281 Z" id="Shape"></path>
                                <path d="M2.01873244,30.509267 C3.06771831,30.509267 3.91816076,31.3597095 3.91816076,32.4086953 L3.91816076,40.0060525 C3.91816076,41.0550384 3.06771831,41.9054808 2.01873244,41.9054808 C0.96974657,41.9054808 0.119304113,41.0550384 0.119304113,40.0060525 L0.119304113,32.4086953 C0.119482179,31.3597095 0.96974657,30.509267 2.01873244,30.509267 Z" id="Shape"></path>
                            </g>
                            <path d="M5.69899724,68.9805349 L55.0830653,68.9805349 C56.1320512,68.9805349 56.9824936,69.8309774 56.9824936,70.8799632 C56.9824936,71.9289491 56.1320512,72.7793916 55.0830653,72.7793916 L5.69899724,72.7793916 C4.65001137,72.7793916 3.79956891,71.9289491 3.79956891,70.8799632 C3.79956891,69.8309774 4.64983331,68.9805349 5.69899724,68.9805349 Z" id="Shape" fill="#FFFFFF" opacity="0.173711868"></path>
                            <path d="M62.6806006,68.9805349 L77.8760272,68.9805349 C78.925013,68.9805349 79.7754555,69.8309774 79.7754555,70.8799632 C79.7754555,71.9289491 78.925013,72.7793916 77.8760272,72.7793916 L62.6806006,72.7793916 C61.6316147,72.7793916 60.7811722,71.9289491 60.7811722,70.8799632 C60.7811722,69.8309774 61.6314366,68.9805349 62.6806006,68.9805349 Z" id="Shape" fill="#FFFFFF" opacity="0.173711868"></path>
                            <g id="Group" transform="translate(7.478765, 3.000000)" fill="#FFFFFF" opacity="0.137718564">
                                <path d="M2.0189105,10.8009532 L17.2143371,10.8009532 C18.263323,10.8009532 19.1137654,11.6513956 19.1137654,12.7003815 C19.1137654,13.7493674 18.263323,14.5998098 17.2143371,14.5998098 L2.0189105,14.5998098 C0.969924636,14.5998098 0.119482179,13.7493674 0.119482179,12.7003815 C0.119482179,11.6513956 0.96974657,10.8009532 2.0189105,10.8009532 Z" id="Shape"></path>
                                <path d="M32.1924756,0.448583927 L45.3879022,0.448583927 C46.4368881,0.448583927 47.2873305,1.29902638 47.2873305,2.34801225 C47.2873305,3.39699812 46.4368881,4.24744058 45.3879022,4.24744058 L32.1924756,4.24744058 C31.1434897,4.24744058 30.2930473,3.39699812 30.2930473,2.34801225 C30.2930473,1.29902638 31.1433117,0.448583927 32.1924756,0.448583927 Z" id="Shape"></path>
                            </g>
                            <path d="M64.2955459,3.44049279 L73.6910475,3.44049279 C74.7400334,3.44049279 75.5904758,4.29093525 75.5904758,5.33992112 C75.5904758,6.38890699 74.7400334,7.23934945 73.6910475,7.23934945 L64.2955459,7.23934945 C63.2465601,7.23934945 62.3961176,6.38890699 62.3961176,5.33992112 C62.3961176,4.29093525 63.246382,3.44049279 64.2955459,3.44049279 Z" id="Shape" fill="#FFFFFF" opacity="0.137718564"></path>
                            <g id="Group" transform="translate(3.739383, 19.478765)" fill="#FFFFFF" opacity="0.172642299">
                                <path d="M1.95943651,0.118769916 C3.00842238,0.118769916 3.85886484,0.969212372 3.85886484,2.01819824 L3.85886484,40.0060525 C3.85886484,41.0550384 3.00842238,41.9054808 1.95943651,41.9054808 C0.910450645,41.9054808 0.0600081884,41.0550384 0.0600081884,40.0060525 L0.0600081884,2.01819824 C0.0601862543,0.969212372 0.910450645,0.118769916 1.95943651,0.118769916 Z" id="Shape"></path>
                                <path d="M32.3486871,0.118769916 C33.397673,0.118769916 34.2479374,0.969212372 34.2479374,2.01819824 L34.2479374,40.0060525 C34.2479374,41.0550384 33.3974949,41.9054808 32.3485091,41.9054808 C31.2995232,41.9054808 30.4490807,41.0550384 30.4490807,40.0060525 L30.4490807,2.01819824 C30.4494369,0.969212372 31.2997013,0.118769916 32.3486871,0.118769916 Z" id="Shape"></path>
                            </g>
                        </g>
                        <rect id="Rectangle" fill="#1F36CC" fill-rule="nonzero" opacity="0.1" x="76.6331202" y="13.4824618" width="42" height="42" rx="16"></rect>
                        <rect id="Rectangle-Copy-2" fill="#1F36CC" fill-rule="nonzero" opacity="0.1" x="29.3343885" y="0.676213049" width="25.19061" height="25.19061" rx="10"></rect>
                    </g>
                </g>
            </g>
        </g>
    </g>
</svg>