<?xml version="1.0" encoding="UTF-8"?>
<svg width="85px" height="119px" viewBox="0 0 85 119" version="1.1" xmlns="http://www.w3.org/2000/svg" xmlns:xlink="http://www.w3.org/1999/xlink">
    <!-- Generator: Sketch 52.2 (67145) - http://www.bohemiancoding.com/sketch -->
    <title>Group 27</title>
    <desc>Created with Sketch.</desc>
    <g id="Landing-Page" stroke="none" stroke-width="1" fill="none" fill-rule="evenodd">
        <g transform="translate(-200.000000, -3059.000000)" fill-rule="nonzero" id="Group-32">
            <g transform="translate(200.000000, 2927.168028)">
                <g id="Group-15" transform="translate(0.477955, 130.883318)">
                    <g id="Group-27" transform="translate(0.000000, 0.979582)">
                        <rect id="Rectangle" fill="#1F36CC" opacity="0.1" x="41.9250467" y="13.4824618" width="42" height="42" rx="16"></rect>
                        <rect id="Rectangle-Copy-2" fill="#1F36CC" opacity="0.1" x="0.39220251" y="0.676213049" width="25.19061" height="25.19061" rx="10"></rect>
                        <g id="Group" transform="translate(4.423660, 56.788775)" fill="#FCE8C3">
                            <path d="M6.71640971,0.096868874 L22.2077323,0.096868874 L22.2077323,12.4898398 L6.71640971,12.4898398 C3.2941936,12.4898398 0.519851621,9.71549785 0.519851621,6.29328174 C0.519996852,2.87106562 3.2941936,0.096868874 6.71640971,0.096868874 Z" id="Shape"></path>
                            <path d="M51.5499812,12.4898398 C59.2650014,20.3896798 64.4208776,25.7072537 67.0176099,28.4425616 C70.9127084,32.5455234 72.9132398,40.9341366 72.370976,47.9094682 C71.8287121,54.8847999 69.0343211,61.5718251 60.9092443,62.0620141 L54.6481876,62.0620141 C42.6704313,62.0620141 32.9604522,52.352035 32.9604522,40.3741334 L51.5499812,40.3741334 L51.5499812,12.4898398 Z" id="Shape"></path>
                        </g>
                        <g id="Group" transform="translate(38.255496, 73.953660)" fill="#F6C887">
                            <path d="M0.038631365,29.4058064 C2.77855367,38.5949882 11.2274946,44.8942244 20.8164965,44.897129 L23.914703,44.897129 L23.914703,29.4058064 L0.038631365,29.4058064 Z" id="Shape"></path>
                            <path d="M13.5108523,1.29591122 C15.2219603,-0.415196832 17.9963023,-0.415196832 19.7074104,1.29591122 L26.4355128,8.02401366 C28.1466209,9.73512172 28.1466209,12.5094637 26.4355128,14.2205718 C24.7244048,15.9316798 21.9500628,15.9316798 20.2389547,14.2205718 L13.5108523,7.49246932 C11.7997442,5.78136126 11.7997442,3.00701928 13.5108523,1.29591122 Z" id="Shape"></path>
                        </g>
                        <g id="Group-26" transform="translate(13.974307, 30.677502)">
                            <path d="M8.45056513,0.779007128 L37.9508902,0.779007128 C42.6058004,0.779007128 46.3794699,4.55267664 46.3794699,9.20758678 L46.3794699,68.2070517 C46.3794699,72.8619618 42.6058004,76.6356314 37.9508902,76.6356314 L8.45056513,76.6356314 C3.79565499,76.6356314 0.0219854775,72.8619618 0.0219854775,68.2070517 L0.0219854775,9.20758678 C0.0219854775,4.55267664 3.79565499,0.779007128 8.45056513,0.779007128 Z" id="Shape" fill="#1F36CC"></path>
                            <path d="M8.45056513,0.779007128 L33.7353164,0.779007128 C38.3902265,0.779007128 42.163896,4.55267664 42.163896,9.20758678 L42.163896,68.2070517 C42.163896,72.8619618 38.3902265,76.6356314 33.7353164,76.6356314 L8.45056513,76.6356314 C3.79565499,76.6356314 0.0219854775,72.8619618 0.0219854775,68.2070517 L0.0219854775,9.20758678 C0.0219854775,4.55267664 3.79565499,0.779007128 8.45056513,0.779007128 Z" id="Shape" fill="#FFFFFF" opacity="0.501614"></path>
                            <path d="M8.44977496,4.99339572 L33.7361065,4.99339572 C36.0635616,4.99339572 37.9502976,6.88013171 37.9502976,9.20758678 L37.9502976,68.2066566 C37.9502976,70.5341117 36.0635616,72.4208477 33.7361065,72.4208477 L8.44977496,72.4208477 C6.12231989,72.4208477 4.2355839,70.5341117 4.2355839,68.2066566 L4.2355839,9.20758678 C4.2355839,6.88013171 6.12231989,4.99339572 8.44977496,4.99339572 Z" id="Shape" fill="#F2EDF9"></path>
                            <path d="M44.2710903,13.4211852 L46.2746779,13.4211852 C47.4384054,13.4211852 48.3818722,14.364652 48.3818722,15.5283795 L48.3818722,23.9567616 C48.3818722,25.1204891 47.4384054,26.0639559 46.2746779,26.0639559 L44.2710903,26.0639559 C43.1073628,26.0639559 42.163896,25.1204891 42.163896,23.9567616 L42.163896,15.5283795 C42.163896,14.364652 43.1073628,13.4211852 44.2710903,13.4211852 Z" id="Shape" fill="#5563ED"></path>
                            <path d="M46.6227056,13.4211852 C47.7864331,13.4211852 48.7298999,14.364652 48.7298999,15.5283795 L48.7298999,23.9567616 C48.7298999,25.1204891 47.7864331,26.0639559 46.6227056,26.0639559 C45.458978,26.0639559 44.5155113,25.1204891 44.5155113,23.9567616 L44.5155113,15.5283795 C44.5157088,14.364652 45.458978,13.4211852 46.6227056,13.4211852 Z" id="Shape" fill="#1F36CC"></path>
                            <path d="M44.2710903,30.2795298 L46.2746779,30.2795298 C47.4384054,30.2795298 48.3818722,31.2229965 48.3818722,32.3867241 L48.3818722,40.8151062 C48.3818722,41.9788337 47.4384054,42.9223005 46.2746779,42.9223005 L44.2710903,42.9223005 C43.1073628,42.9223005 42.163896,41.9788337 42.163896,40.8151062 L42.163896,32.3867241 C42.163896,31.2229965 43.1073628,30.2795298 44.2710903,30.2795298 Z" id="Shape" fill="#5563ED"></path>
                            <path d="M46.6227056,30.2795298 C47.7864331,30.2795298 48.7298999,31.2229965 48.7298999,32.3867241 L48.7298999,40.8151062 C48.7298999,41.9788337 47.7864331,42.9223005 46.6227056,42.9223005 C45.458978,42.9223005 44.5155113,41.9788337 44.5155113,40.8151062 L44.5155113,32.3867241 C44.5157088,31.2229965 45.458978,30.2795298 46.6227056,30.2795298 Z" id="Shape" fill="#1F36CC"></path>
                            <path d="M12.6633734,18.7260022 L29.5205327,18.7260022 C31.8479878,18.7260022 33.7347237,20.6127382 33.7347237,22.9401933 L33.7347237,35.5837541 C33.7347237,37.9112092 31.8479878,39.7979452 29.5205327,39.7979452 L12.6633734,39.7979452 C10.3359183,39.7979452 8.44918233,37.9112092 8.44918233,35.5837541 L8.44918233,22.9401933 C8.44918233,20.6127382 10.3359183,18.7260022 12.6633734,18.7260022 Z" id="Shape" fill="#1F36CC" opacity="0.198962984"></path>
                            <circle id="Oval" fill="#1F36CC" opacity="0.198962984" cx="12.6647562" cy="12.3158834" r="4.21419105"></circle>
                            <path d="M23.1991473,10.2087879 L31.6275294,10.2087879 C32.791257,10.2087879 33.7347237,11.1522547 33.7347237,12.3159822 C33.7347237,13.4797098 32.791257,14.422979 31.6275294,14.422979 L23.1991473,14.422979 C22.0354198,14.422979 21.091953,13.4795122 21.091953,12.3159822 C21.091953,11.1522547 22.0354198,10.2087879 23.1991473,10.2087879 Z" id="Shape" fill="#1F36CC" opacity="0.198962984"></path>
                            <path d="M10.5563766,47.1358989 L31.6275294,47.1358989 C32.791257,47.1358989 33.7347237,48.0793657 33.7347237,49.2430932 C33.7347237,50.4068207 32.791257,51.3502875 31.6275294,51.3502875 L10.5563766,51.3502875 C9.39264909,51.3502875 8.44918233,50.4068207 8.44918233,49.2430932 C8.44918233,48.0793657 9.39264909,47.1358989 10.5563766,47.1358989 Z" id="Shape" fill="#1F36CC" opacity="0.198962984"></path>
                            <path d="M10.5563766,55.5650712 L18.9847587,55.5650712 C20.1484863,55.5650712 21.091953,56.5085379 21.091953,57.6722655 C21.091953,58.835993 20.1484863,59.7794598 18.9847587,59.7794598 L10.5563766,59.7794598 C9.39264909,59.7794598 8.44918233,58.835993 8.44918233,57.6722655 C8.44918233,56.5085379 9.39264909,55.5650712 10.5563766,55.5650712 Z" id="Shape" fill="#1F36CC" opacity="0.198962984"></path>
                        </g>
                        <g id="Group" transform="translate(7.473505, 78.452354)" fill="#FCE8C3">
                            <path d="M28.8764861,0.528862397 C28.8764861,0.528862397 33.6930229,0.784487746 43.3260965,1.29573844 L57.6427063,15.6123482 L60.8931076,40.3984353 C50.6264592,40.3984353 42.3035785,32.0755546 42.3035785,21.8089063 L33.148676,12.6538965 L28.8764861,12.6538965 C25.2938716,12.6538965 22.0292584,11.4406268 22.0292584,6.31758367 C22.0292584,1.19454057 25.2938716,0.528862397 28.8764861,0.528862397 Z" id="Shape"></path>
                            <path d="M5.21574093,15.6123482 L8.31351167,15.6123482 C10.8801738,15.6123482 12.9608939,17.6930684 12.9608939,20.2597305 C12.9608939,22.8263925 10.8801738,24.9071127 8.31351167,24.9071127 L5.21574093,24.9071127 C2.64907885,24.9071127 0.568358673,22.8263925 0.568358673,20.2597305 C0.568358673,17.6930684 2.64907885,15.6123482 5.21574093,15.6123482 Z" id="Shape"></path>
                            <path d="M6.76491677,3.21981293 L9.86355889,3.21981293 C13.285775,3.21981293 16.060117,5.99400968 16.060117,9.41608056 C16.060117,12.8381514 13.285775,15.6123482 9.86355889,15.6123482 L6.76491677,15.6123482 C3.34270065,15.6123482 0.568358673,12.8381514 0.568358673,9.41608056 C0.568358673,5.99400968 3.34270065,3.21981293 6.76491677,3.21981293 Z" id="Shape"></path>
                        </g>
                        <g id="Group" transform="translate(13.718424, 84.673069)" fill="#FFFFFF">
                            <path d="M0.519996852,3.1950753 C0.519996852,4.90618336 1.90709523,6.29328174 3.61820328,6.29328174 C3.61820328,6.29328174 3.61820328,6.29328174 3.61820328,6.29328174 L6.71640971,6.29328174 L6.71640971,0.0967236433 L3.61820328,0.0967236433 C1.90709523,0.096868874 0.519996852,1.48396725 0.519996852,3.1950753 C0.519996852,3.1950753 0.519996852,3.1950753 0.519996852,3.1950753 Z" id="Shape"></path>
                            <polygon id="Shape" points="0.519996852 12.4898398 3.61820328 12.4898398 3.61820328 15.5880463 0.519996852 15.5880463"></polygon>
                        </g>
                        <path d="M14.2384213,69.2781794 L20.4348342,69.2781794 C23.8570503,69.2781794 26.6313923,72.0523762 26.6313923,75.4744471 C26.6313923,78.8965179 23.8570503,81.6707147 20.4348342,81.6707147 L14.2384213,81.6707147 C10.8162052,81.6707147 8.04186324,78.8965179 8.04186324,75.4744471 C8.04186324,72.0523762 10.8162052,69.2781794 14.2384213,69.2781794 Z" id="Shape" fill="#FCE8C3"></path>
                        <g id="Group" transform="translate(13.718424, 69.278615)" fill="#F6C887">
                            <path d="M11.982039,9.42677923 C13.7817378,6.53436469 12.8958306,2.73062754 10.003416,0.930928759 C9.01729962,0.31732907 7.87781959,-0.00537353574 6.71640971,-7.44829139e-14 L6.71640971,9.29476452 L2.06902745,9.29476452 C1.21347342,9.29476452 0.519851621,9.98838633 0.519851621,10.8439404 C0.519851621,11.6994944 1.21347342,12.3931162 2.06902745,12.3931162 L6.71640971,12.3931162 C7.21367962,12.3875974 7.7084806,12.3219531 8.18992035,12.1973452 C8.31685198,12.1658301 8.43550546,12.1218252 8.55924201,12.0827582 C8.92188306,11.9699139 9.27334134,11.8235214 9.60882425,11.6453233 C9.69915774,11.5965258 9.78978169,11.5526661 9.8773558,11.4996569 C10.7358144,10.9887354 11.4577562,10.2776859 11.9817486,9.42706969 L11.982039,9.42677923 Z" id="Shape"></path>
                            <path d="M8.875264,21.8178622 C9.48668523,20.8519328 9.81229245,19.7326399 9.81476137,18.589529 C9.80982353,16.3847819 8.62866228,14.3500998 6.71655494,13.2524462 L6.71655494,21.6877355 L2.06902745,21.6877355 C1.21347342,21.6877355 0.519851621,22.3813573 0.519851621,23.2369113 C0.519851621,24.0924653 1.21347342,24.7860871 2.06902745,24.7860871 L3.61820328,24.7860871 C5.24812738,24.7850705 6.81022874,24.1340013 7.95842262,22.9770936 C8.1064127,22.8109497 8.24539848,22.6371085 8.37479903,22.4561511 C8.55808016,22.255297 8.72800008,22.0426793 8.88368738,21.8197502 C8.88107323,21.8187336 8.87787816,21.819024 8.875264,21.8178622 Z" id="Shape"></path>
                        </g>
                        <path d="M17.3366278,75.4751732 C17.3366278,77.1862813 18.7237261,78.5733796 20.4348342,78.5733796 C20.4348342,78.5733796 20.4348342,78.5733796 20.4348342,78.5733796 L23.5330406,78.5733796 L23.5330406,72.3768216 L20.4348342,72.3768216 C18.7237261,72.3769668 17.3366278,73.7640652 17.3366278,75.4751732 C17.3366278,75.4751732 17.3366278,75.4751732 17.3366278,75.4751732 Z" id="Shape" fill="#FFFFFF"></path>
                        <path d="M11.1400697,56.8856442 C7.71785356,56.8856442 4.94365681,59.6598409 4.94351158,63.082057 C4.94351158,63.082057 4.94351158,63.0822023 4.94351158,63.0822023 L11.1400697,63.0822023 L11.1400697,64.6312329 C11.1400697,65.4867869 11.8336915,66.1804087 12.6892455,66.1804087 C13.5447995,66.1804087 14.2384213,65.4867869 14.2384213,64.6312329 L14.2384213,56.8856442 L11.1400697,56.8856442 Z" id="Shape" fill="#F6C887"></path>
                        <g id="Group" transform="translate(7.473505, 72.328460)" fill="#FEF4E2">
                            <path d="M2.11738927,0.0489427444 C2.9729433,0.0489427444 3.66641987,0.742564547 3.66641987,1.59811858 L3.66641987,4.69632501 C3.66641987,5.55187903 2.97279807,6.24550084 2.11738927,6.24550084 C1.26183525,6.24550084 0.568213443,5.55187903 0.568213443,4.69632501 L0.568213443,1.59811858 C0.568358673,0.742564547 1.26183525,0.0489427444 2.11738927,0.0489427444 Z" id="Shape"></path>
                            <path d="M2.11738927,12.441478 C2.9729433,12.441478 3.66641987,13.1350998 3.66641987,13.9906538 L3.66641987,17.0888603 C3.66641987,17.9444143 2.97279807,18.6380361 2.11738927,18.6380361 C1.26183525,18.6380361 0.568213443,17.9444143 0.568213443,17.0888603 L0.568213443,13.9906538 C0.568358673,13.1350998 1.26183525,12.441478 2.11738927,12.441478 Z" id="Shape"></path>
                            <path d="M2.1175345,27.9328006 C1.26198048,27.9328006 0.568358673,27.2391788 0.568358673,26.3836248 C0.568358673,26.3836248 0.568358673,26.3836248 0.568358673,26.3836248 C0.568358673,25.5280708 1.26198048,24.834449 2.1175345,24.834449 C2.97308853,24.834449 3.6665651,25.5280708 3.6665651,26.3836248 C3.6665651,27.2391788 2.97308853,27.9328006 2.1175345,27.9328006 Z" id="Shape"></path>
                        </g>
                        <g id="Group" transform="translate(13.718424, 81.035386)" fill="#F6C887">
                            <path d="M6.25050964,19.6711519 C6.24048872,19.6612763 6.22567519,19.657355 6.21550904,19.647915 C6.53080488,19.0376556 6.70203187,18.3633495 6.71640971,17.6766988 C6.71248848,15.7127441 5.4710565,13.9646022 3.61820328,13.3136782 L3.61820328,19.2257294 L2.06902745,19.2257294 C1.21347342,19.2257294 0.519851621,19.9193512 0.519851621,20.7749052 C0.519851621,21.6304593 1.21347342,22.3240811 2.06902745,22.3240811 C2.59882903,22.3163838 3.12311184,22.2158842 3.61820328,22.0269391 L3.61820328,22.0395741 C3.68094294,22.0172086 3.73003092,21.9713157 3.7914635,21.9464813 C4.12854395,21.8141761 4.44877763,21.6423682 4.74548394,21.434543 C4.87488449,21.3341886 4.99862104,21.2270084 5.11654837,21.113438 C5.31667627,20.9419205 5.50199064,20.7537015 5.67031301,20.5508143 C5.80741079,20.3730519 5.93129257,20.1854138 6.04050606,19.9893524 C6.10469802,19.8791223 6.19503152,19.787046 6.25050964,19.6711519 Z" id="Shape"></path>
                            <path d="M37.6078344,14.5784924 L29.460653,6.43131093 L21.6313576,5.84404269 C19.3425245,5.84404269 18.6951088,4.78778335 19.0489517,2.08750782 C19.4027947,-0.612767704 15.7843384,-1.003294 15.7843384,4.19595114 C15.7843384,7.22514372 17.8880683,9.68609352 20.7672805,9.93096487 L27.3864883,10.5535591 L34.509628,17.6766988 C35.365182,18.5322528 36.7522804,18.5322528 37.6078344,17.6766988 C38.4633885,16.8211448 38.4633885,15.4340464 37.6078344,14.5784924 Z" id="Shape"></path>
                        </g>
                        <path d="M31.3289078,85.266311 L35.379616,81.2156029 C35.9388941,80.6563247 36.8456444,80.6563247 37.4049226,81.2156029 C37.4049226,81.2156029 37.4049226,81.2156029 37.4049226,81.2156029 C39.0827571,82.8934374 39.0827571,85.6137831 37.4049226,87.2916176 C35.7270881,88.9694521 33.0067423,88.9694521 31.3289078,87.2916176 C30.7693448,86.7326243 30.7683005,85.8264436 31.3271989,85.2668806 C31.3275787,85.2665009 31.3279584,85.2661211 31.3289078,85.266311 Z" id="Shape" fill="#FFFFFF" transform="translate(34.785964, 84.673069) rotate(-45.000000) translate(-34.785964, -84.673069) "></path>
                        <path d="M55.9740769,100.261115 C57.6851849,98.5500071 60.4595269,98.5500071 62.170635,100.261115 L68.3671931,106.457673 C70.0783011,108.168781 70.0783011,110.943123 68.3671931,112.654231 C66.656085,114.365339 63.881743,114.365339 62.170635,112.654231 L55.9740769,106.457673 C54.2629688,104.74642 54.2629688,101.972223 55.9740769,100.261115 Z" id="Shape" fill="#FEF4E2"></path>
                    </g>
                </g>
            </g>
        </g>
    </g>
</svg>